<?xml version="1.0" encoding="UTF-8" standalone="no"?>
<svg
   fill="none"
   height="35"
   viewBox="0 0 35 35"
   width="35"
   version="1.1"
   id="svg17"
   sodipodi:docname="deta_logo.svg"
   inkscape:version="1.2.1 (9c6d41e410, 2022-07-14)"
   xmlns:inkscape="http://www.inkscape.org/namespaces/inkscape"
   xmlns:sodipodi="http://sodipodi.sourceforge.net/DTD/sodipodi-0.dtd"
   xmlns="http://www.w3.org/2000/svg"
   xmlns:svg="http://www.w3.org/2000/svg">
  <g
     clip-path="url(#a)"
     id="g13">
    <path
       d="M 17.5001,0 C 27.165,0 35,7.83502 35,17.5 35,27.165 27.165,35 17.5001,35 7.83502,35 0,27.165 0,17.5 0,7.83502 7.83502,0 17.5001,0 Z"
       fill="#f73b95"
       id="path5" />
    <path
       d="m 17.5417,3.41699 c 7.824,0 14.1666,6.34263 14.1666,14.16671 0,7.824 -6.3426,14.1666 -14.1666,14.1666 C 9.71767,31.7503 3.375,25.4077 3.375,17.5837 3.375,9.75962 9.71767,3.41699 17.5417,3.41699 Z"
       fill="#bd399c"
       id="path7" />
    <path
       d="m 17.5416,7.16699 c 5.7529,0 10.4166,4.66361 10.4166,10.41671 0,5.753 -4.6637,10.4166 -10.4166,10.4166 -5.753,0 -10.4166,-4.6636 -10.4166,-10.4166 0,-5.7531 4.6636,-10.41671 10.4166,-10.41671 z"
       fill="#93388e"
       id="path9" />
    <path
       d="m 17.4583,10.333 c 3.9119,0 7.0833,3.1713 7.0833,7.0833 0,3.9119 -3.1714,7.0833 -7.0833,7.0833 -3.9119,0 -7.0833,-3.1714 -7.0833,-7.0833 0,-3.912 3.1714,-7.0833 7.0833,-7.0833 z"
       fill="#6030a2"
       id="path11" />
  </g>
</svg>
